#!OML:ASF I:\Actors\actors\Patient Classification 2\Patient 1\Session 1\actor1.ASF
:FULLY-SPECIFIED
:DEGREES
797
root -0.703701 18.2702 8.43338 2.79548 -0.493951 1.19869
lowerback 7.67522 0.324536 -4.06893
upperback -5.84706 0.0313336 1.0586
thorax -10.6059 0.365478 3.42478
lowerneck -14.7255 -2.66823 -4.26876
upperneck 12.0227 -3.38327 4.45899
head 6.21226 -1.47712 1.79211
rclavicle 2.36057e-015 6.75868e-015
rhumerus -22.1521 -35.694 3.36765
rradius 36.0273
rwrist 32.6597
rhand 4.23354 -34.037
rfingers 7.12502
rthumb 29.6386 -61.6891
lclavicle 2.36057e-015 6.75868e-015
lhumerus -11.1981 68.4483 6.26009
lradius 28.2233
lwrist -39.7271
lhand 9.8951 -18.9101
lfingers 7.12502
lthumb 35.0268 7.6397
rfemur -6.08059 0.0717041 18.3315
rtibia 26.4482
rfoot -24.7227 2.58152
rtoes 1.20016
lfemur -13.8288 -5.80231 -20.3725
ltibia 36.5385
lfoot -26.4057 -0.359285
ltoes -52.8665
798
root -0.698528 18.2723 8.40913 2.83759 -0.443358 1.16341
lowerback 7.84713 0.304688 -4.01879
upperback -5.81878 0.00593807 1.07763
thorax -10.6748 0.351606 3.42247
lowerneck -15.3388 -2.75499 -4.23208
upperneck 11.9959 -3.49734 4.54368
head 6.31313 -1.51545 1.79677
rclavicle 8.24956e-015 1.39149e-015
rhumerus -21.7798 -35.0261 3.08847
rradius 35.986
rwrist 32.8744
rhand 2.76762 -34.7658
rfingers 7.12502
rthumb 28.2385 -62.658
lclavicle 8.24956e-015 1.39149e-015
lhumerus -10.686 69.0783 6.73968
lradius 28.0229
lwrist -40.5763
lhand 9.94041 -19.4195
lfingers 7.12502
lthumb 35.0698 7.12027
rfemur -6.20088 0.0677069 18.3619
rtibia 26.4412
rfoot -24.7449 2.54444
rtoes 1.41582
lfemur -13.9579 -5.99148 -20.3447
ltibia 36.5443
lfoot -26.4001 -0.266877
ltoes -52.799
799
root -0.692936 18.274 8.38657 2.9061 -0.493978 1.17253
lowerback 7.99848 0.311866 -4.02015
upperback -5.79796 0.0100656 1.08395
thorax -10.7431 0.35533 3.4305
lowerneck -16.029 -2.84961 -4.15998
upperneck 12.0165 -3.6193 4.56283
head 6.44032 -1.55976 1.7728
rclavicle -3.10601e-015 1.98785e-016
rhumerus -21.5075 -34.0728 2.77753
rradius 36.0521
rwrist 32.9257
rhand 1.65679 -35.9805
rfingers 7.12502
rthumb 27.1763 -64.0434
lclavicle -3.10601e-015 1.98785e-016
lhumerus -10.3781 69.628 7.04915
lradius 27.9108
lwrist -41.202
lhand 9.68827 -19.8331
lfingers 7.12502
lthumb 34.8306 6.76239
rfemur -6.36225 0.0288201 18.3273
rtibia 26.4363
rfoot -24.698 2.57063
rtoes 1.24876
lfemur -14.0949 -6.12928 -20.3725
ltibia 36.5484
lfoot -26.448 -0.129104
ltoes -52.7406
800
root -0.68663 18.2768 8.36354 3.00011 -0.568896 1.18267
lowerback 8.15831 0.323958 -4.01117
upperback -5.79882 0.020445 1.07949
thorax -10.8414 0.361894 3.42015
lowerneck -16.6352 -2.9226 -4.0505
upperneck 11.955 -3.71762 4.5555
head 6.52444 -1.59451 1.737
rclavicle 9.61621e-015 -7.95139e-015
rhumerus -21.2926 -33.6364 2.5369
rradius 36.0432
rwrist 32.9826
rhand 0.981367 -36.0643
rfingers 7.12502
rthumb 26.53 -64.2265
lclavicle 9.61621e-015 -7.95139e-015
lhumerus -10.2777 70.2369 7.19472
lradius 27.9063
lwrist -41.8165
lhand 9.25187 -20.1724
lfingers 7.12502
lthumb 34.4164 6.5179
rfemur -6.54967 0.0612011 18.2949
rtibia 26.4326
rfoot -24.701 2.55364
rtoes 0.881709
lfemur -14.2726 -6.13144 -20.3928
ltibia 36.5523
lfoot -26.4032 -0.0941065
ltoes -52.6216
801
root -0.679768 18.2803 8.34011 3.07895 -0.673024 1.17427
lowerback 8.3171 0.350075 -3.99524
upperback -5.77998 0.0522045 1.08691
thorax -10.9188 0.377912 3.41479
lowerneck -17.0655 -2.97297 -3.93469
upperneck 11.6832 -3.78385 4.53245
head 6.50911 -1.61852 1.69993
rclavicle 1.51573e-015 -9.93923e-016
rhumerus -21.093 -33.8578 2.39236
rradius 35.9293
rwrist 33.1403
rhand 0.11971 -35.5569
rfingers 7.12502
rthumb 25.705 -63.8411
lclavicle 1.51573e-015 -9.93923e-016
lhumerus -10.466 70.7672 7.04003
lradius 27.926
lwrist -42.3167
lhand 8.88638 -20.5016
lfingers 7.12502
lthumb 34.0694 6.26679
rfemur -6.72244 0.212584 18.282
rtibia 26.4265
rfoot -24.7549 2.53828
rtoes 1.0523
lfemur -14.4412 -6.03231 -20.3901
ltibia 36.5567
lfoot -26.3293 -0.0898231
ltoes -52.5752
802
root -0.672557 18.2817 8.31844 3.11736 -0.84042 1.14731
lowerback 8.47762 0.399084 -3.97437
upperback -5.7424 0.117979 1.11642
thorax -10.9796 0.410197 3.42431
lowerneck -17.4414 -3.05861 -3.86907
upperneck 11.3858 -3.88723 4.50908
head 6.47857 -1.66388 1.66734
rclavicle -4.22417e-015 1.15295e-014
rhumerus -20.9035 -34.2705 2.27677
rradius 35.8542
rwrist 33.2155
rhand -0.402991 -35.1964
rfingers 7.12502
rthumb 25.2043 -63.552
lclavicle -4.22417e-015 1.15295e-014
lhumerus -11.074 70.5958 6.45355
lradius 27.9766
lwrist -42.0569
lhand 8.62835 -20.5867
lfingers 7.12502
lthumb 33.8242 6.23593
rfemur -6.85132 0.369647 18.2802
rtibia 26.415
rfoot -24.7174 2.58794
rtoes 1.51286
lfemur -14.538 -5.9781 -20.3805
ltibia 36.5619
lfoot -26.3252 0.000352567
ltoes -52.5664
803
root -0.665223 18.2814 8.29954 3.12134 -0.997404 1.09738
lowerback 8.67627 0.448796 -3.91641
upperback -5.71604 0.188808 1.15199
thorax -11.076 0.443394 3.41862
lowerneck -17.7549 -3.12607 -3.90243
upperneck 11.1208 -3.95693 4.5599
head 6.44994 -1.6918 1.67888
rclavicle 4.12478e-015 5.56597e-015
rhumerus -20.7216 -34.5571 2.17523
rradius 35.8245
rwrist 33.207
rhand -0.390384 -35.2629
rfingers 7.12502
rthumb 25.2164 -63.6168
lclavicle 4.12478e-015 5.56597e-015
lhumerus -11.5627 70.2064 5.97439
lradius 27.991
lwrist -41.5723
lhand 8.48103 -20.4802
lfingers 7.12502
lthumb 33.6843 6.3731
rfemur -6.93585 0.349272 18.2948
rtibia 26.4095
rfoot -24.5766 2.73761
rtoes 1.69499
lfemur -14.5842 -5.91772 -20.3487
ltibia 36.5631
lfoot -26.3088 0.0522488
ltoes -52.519
804
root -0.658571 18.2825 8.28149 3.12056 -1.09278 1.08505
lowerback 8.89917 0.490493 -3.88617
upperback -5.69257 0.241715 1.16166
thorax -11.1888 0.469238 3.40357
lowerneck -18.0129 -3.16414 -3.93255
upperneck 10.8533 -3.98963 4.61355
head 6.40957 -1.70228 1.69539
rclavicle -4.62174e-015 -1.98785e-015
rhumerus -20.6004 -34.7819 2.12227
rradius 35.7762
rwrist 33.2683
rhand -0.198379 -35.4138
rfingers 7.12502
rthumb 25.4003 -63.7417
lclavicle -4.62174e-015 -1.98785e-015
lhumerus -11.649 70.336 5.88047
lradius 27.9434
lwrist -41.5742
lhand 8.57645 -20.3995
lfingers 7.12502
lthumb 33.7749 6.43395
rfemur -7.01697 0.219929 18.2669
rtibia 26.4163
rfoot -24.4621 2.87733
rtoes 1.57952
lfemur -14.6433 -5.79815 -20.3502
ltibia 36.5571
lfoot -26.2485 0.0461474
ltoes -52.572
805
root -0.652532 18.2844 8.26413 3.14167 -1.16855 1.09674
lowerback 9.08924 0.53595 -3.86354
upperback -5.67269 0.29709 1.1426
thorax -11.2859 0.495072 3.3606
lowerneck -18.2452 -3.21491 -3.95028
upperneck 10.6365 -4.0491 4.69337
head 6.38278 -1.72292 1.71558
rclavicle -8.07563e-015 -1.19271e-015
rhumerus -20.5928 -34.9234 2.14206
rradius 35.7342
rwrist 33.4331
rhand 0.0518096 -35.6009
rfingers 7.12502
rthumb 25.64 -63.8945
lclavicle -8.07563e-015 -1.19271e-015
lhumerus -11.5356 70.5771 5.95768
lradius 27.8971
lwrist -41.5504
lhand 8.76034 -20.2079
lfingers 7.12502
lthumb 33.9496 6.58706
rfemur -7.12425 0.207962 18.2232
rtibia 26.4335
rfoot -24.4207 2.86171
rtoes 1.37948
lfemur -14.7214 -5.74523 -20.377
ltibia 36.5451
lfoot -26.2164 0.0795118
ltoes -52.5989
806
root -0.64729 18.2858 8.24878 3.19515 -1.24236 1.07608
lowerback 9.21746 0.578745 -3.80292
upperback -5.6564 0.357826 1.13429
thorax -11.3495 0.520259 3.30627
lowerneck -18.4591 -3.26225 -4.04779
upperneck 10.4809 -4.09293 4.81437
head 6.37452 -1.73569 1.76373
rclavicle -1.03617e-014 1.98785e-015
rhumerus -20.622 -34.8263 2.17866
rradius 35.7638
rwrist 33.4044
rhand 0.438153 -36.0084
rfingers 7.12502
rthumb 26.01 -64.2482
lclavicle -1.03617e-014 1.98785e-015
lhumerus -11.4262 70.6286 6.04589
lradius 27.899
lwrist -41.3073
lhand 8.88002 -19.8731
lfingers 7.12502
lthumb 34.0633 6.89663
rfemur -7.26434 0.243443 18.2231
rtibia 26.4617
rfoot -24.3688 2.80957
rtoes 1.28224
lfemur -14.8115 -5.79256 -20.3649
ltibia 36.5268
lfoot -26.2128 0.118858
ltoes -52.4432
807
root -0.642403 18.2866 8.23639 3.23875 -1.26923 1.08232
lowerback 9.31624 0.608324 -3.77463
upperback -5.62488 0.397983 1.13018
thorax -11.3767 0.537177 3.27831
lowerneck -18.6758 -3.28843 -4.14447
upperneck 10.3743 -4.0991 4.86551
head 6.379 -1.73579 1.79325
rclavicle -3.50358e-015 7.55382e-015
rhumerus -20.5992 -34.7001 2.18326
rradius 35.7861
rwrist 33.1639
rhand 0.74844 -36.5276
rfingers 7.12502
rthumb 26.3071 -64.7233
lclavicle -3.50358e-015 7.55382e-015
lhumerus -11.3152 70.6313 6.1629
lradius 27.9358
lwrist -41.1903
lhand 8.96116 -19.6535
lfingers 7.12502
lthumb 34.1404 7.09903
rfemur -7.37444 0.206215 18.1939
rtibia 26.4897
rfoot -24.3142 2.83174
rtoes 1.28611
lfemur -14.893 -5.74386 -20.373
ltibia 36.5079
lfoot -26.1695 0.0406149
ltoes -52.3047
